<?xml version="1.0" encoding="UTF-8"?>
<svg id="Capa_1" xmlns="http://www.w3.org/2000/svg" version="1.1" viewBox="0 0 2217.8 281.4">
  <!-- Generator: Adobe Illustrator 30.5.1, SVG Export Plug-In . SVG Version: 2.1.4 Build 3)  -->
  <defs>
    <style>
      .st0 {
        fill: #153755;
      }
    </style>
  </defs>
  <path class="st0" d="M140.2,55.6l7.3,10.4,5,7.5c19.5,30.5,37.6,61.7,53.7,94.1l9.6,22.8c.5,1.2,1.4,3.3,0,4.4-12.9,9.5-28.7-6.4-37-18.3l-8.8-12.4-22.1-35.9-6.8-9.8c-3.5-5-10.4-11.5-12.8-8.8l-3.6,4.2-12.5,21.1c-9.6,18.6-18.1,37-26.5,57.1,3.2-1.8,4.7-5.3,6.9-8.3l23.8-32.5,9.6-12c3.4-1.4,7.5,1.9,9.1,4.5l4.4,7,12.5,27.3c3.6,8,8,15.1,13.5,21.8,22.2,26.9,52.8,24,83.1,11.9,4-9.7,1.7-24.3-1-35.1-3.4-13.5-7.9-26.2-13.4-39-6.6-15.4-13.4-30.2-21.7-44.6l-10.3-17.9C192.1,57.4,151.5-4.7,133.2.3c-10.8,2.9-19.8,8.8-28.1,16.1-25.9,23-51.8,66.9-65.8,98.7l-9.6,21.9c-10.1,24.5-19.4,49-24.9,74.9l-2.7,12.6c-2,9.7-4.3,27.9,1.3,35.3,13-3.9,26.1-5.9,39.5-7.5l6.1-.3h17l6.1.3c16.8,1.6,32.8,4.6,48.9,10l35.7,11.9c10.4,3.5,20.6,7,31.6,7h13c7.6.1,14.6-2.5,21.6-5.4,20.3-8.5,39.5-28.5,53-46.4l-26.1,6.7c-9.8,2.5-35.2,5.5-44.4,4.7l-12.8-1.1-7.5-1.2c-12.5-2.6-23.9-7.4-35.5-12.6l-23.6-10.6c-15.1-5.6-30.4-7-46.4-4.4-13.6,2.2-26.3,6.1-39,11.1-1.4.6-3.7,0-4-1.5-.9-4.5,0-9,1.4-13.5,3.7-11.6,8.3-22.5,13.5-33.4l9.2-19.1c15-29.1,30.6-57.4,48-85.2,5.5-8.7,10.8-16.8,17.2-24.5,1.2-1.5,3-1.9,4.4-.7,3.8,3.3,6.9,7.1,9.8,11.3h0Z"/>
  <g>
    <path class="st0" d="M454.6,134.5l22.7,33.3c8,11.7,14.4,24.4,24.8,34.2l33.9.6v-124.1c0,0-35,.4-35,.4.5,23.9,2.6,44.6-1.3,68l-46.8-68.3-35.3.4.3,123.2h34.2c4.8-21.2-3.2-45.1,2.5-67.8Z"/>
    <rect class="st0" x="345.1" y="78.6" width="38.6" height="124.3"/>
    <path class="st0" d="M674.7,110l.7,92.2c10.9.2,20.7,1.4,30.8-.9v-122.1c0,0-48.8.4-48.8.4l-20.2,74-19.9-74-47.7-.7v116.2c-7.2,8.9,7.3,8.4,29.2,6.4l.9-91.5,23.8,92.1h27.6c0-.1,13.5-54.6,13.5-54.6l10.1-37.6Z"/>
    <path class="st0" d="M2158.2,171.9h-57.3s-.2-92.1-.2-92.1c-13-1.4-24.5-2.1-36.7.1l-.8,122.7,95-.2c2.3-10.4,2.9-19.6,0-30.6Z"/>
    <polygon class="st0" points="2033.1 202 2032.7 168.4 1996.4 168.3 1996.9 201.8 2033.1 202"/>
    <polygon class="st0" points="2217.8 202.5 2217.4 168.4 2182.3 169.2 2182.9 202.3 2217.8 202.5"/>
    <path class="st0" d="M826.6,82.5c-24.3-10.9-64.2-7.2-81.9,18-15.1,21.5-15.9,52.8-3.2,75.9,14.6,26.4,50.9,33.1,78.6,25.1,27.8-8,38.2-34.7,37.9-62.1-.2-26.2-9.3-46.9-31.5-56.9ZM819.7,162.4c-3.6,10-12.4,12.7-19.3,14.2-8.6,1.8-17.5-1.1-22.9-8-9.3-11.9-11.3-54.8,9.3-61.4,12.3-3.9,27.5-1.3,32.7,11.8,5.3,13.3,5.3,29.5.3,43.4Z"/>
    <polygon class="st0" points="1225.4 79.1 1226.1 201.6 1264 201.8 1263.6 79.7 1225.4 79.1"/>
    <path class="st0" d="M976.9,136c13.2-5.6,17.7-13.3,19-23.7,2.4-20.3-17.9-33.2-33.4-33.3l-74.1-.4.2,123.4,76.7-.5c13.8,0,25.8-6.4,31.6-16.5,6.9-11.8,7.2-25.6-.9-36.6-4.6-6.2-10.5-7.7-19.1-12.4ZM926.5,104.1c8.8.6,20-2.4,29,1.8,5.6,2.6,4.3,15.7-.3,19.8-10.5,2.5-18.9,1.2-28.6,1.3v-22.8ZM963.4,166.4c-2.1,12.1-18.5,12.1-36.5,9.8v-25.3c10.5.2,21-1.2,31.3,1.9,6,1.8,6.1,8.7,5.3,13.5Z"/>
    <rect class="st0" x="1029.9" y="78.6" width="38.6" height="123.8"/>
    <path class="st0" d="M1139.9,171.8l.2-92.7h-38.1c0,0,0,123.3,0,123.3h97.4c.8-10.4,1.6-19.5-.2-30.6h-59.4Z"/>
    <path class="st0" d="M1373.5,79.1l-41.5.7-45.5,122.2,37.3.3,6.2-21.1h43.5c3.7,7.2,3.5,15,9,21.2l36.4-1.4-33.3-87.6-12.2-34.4ZM1337.9,154.7l13.7-45.2,14.1,46.5-27.8-1.3Z"/>
    <path class="st0" d="M1521.7,148.6c10.9-5.4,20.3-10.9,25.2-21.2,5.2-11,4.8-23.8-2.4-33.7-5.4-7.5-15.3-13.8-27.1-14l-76.6-1v123.9s35.7-.9,35.7-.9l.9-49.8c11.1-1.2,17.1,5.5,21.7,14.3l18.7,36.1c14.3-.2,27.5,1.6,41.4-1.3l-20.3-38c-3.7-6.9-8.5-11.4-17.3-14.5ZM1508,125.5c-10.4,4.8-21.2,3.7-30.8,3.4l.3-25.3,27.5,1.2c4.8.2,7.3,5.5,7.5,8.7.2,3.7.1,9.9-4.5,12Z"/>
    <polygon class="st0" points="1581.2 78.8 1581.1 201.7 1619.6 201.9 1619.1 79.3 1581.2 78.8"/>
    <path class="st0" d="M1687.6,78.8l-46.7,123.3,39.1.2,6.3-21.4h42.7s5.7,21.3,5.7,21.3c13.5,0,25.9,1.8,39.9-1.2l-46.2-121.6-40.8-.7ZM1693.7,154.9l13.8-43.8,14.6,43.3-28.4.5Z"/>
    <path class="st0" d="M1933.2,79.2l-40.2-.5-46.7,123.5,38.2-.5,6.3-21.4,42.4.9c4.7,6.1,5.2,12.7,6.9,20.6,13.6.6,26.4,1.8,39.1-.6l-46-122.1ZM1897.8,155.4l14-44.5,14.3,45.1-28.4-.6Z"/>
  </g>
</svg>